<svg width="22" height="22" viewBox="0 0 22 22" fill="none" xmlns="http://www.w3.org/2000/svg">
<path d="M19.3202 5.28129L11.9107 1.11676C11.3487 0.802227 10.6509 0.802227 10.0888 1.11676L2.6793 5.28129C2.11211 5.59926 1.75977 6.19566 1.75977 6.83504V15.1641C1.75977 15.8035 2.11211 16.3999 2.6793 16.7179L10.0888 20.8824C10.3707 21.0405 10.6852 21.1196 10.9998 21.1196C11.3143 21.1196 11.6288 21.0405 11.9107 20.8824L19.3202 16.7179C19.8874 16.3999 20.2398 15.8035 20.2398 15.1641V6.83504C20.2398 6.19566 19.8874 5.59926 19.3202 5.28129ZM10.9998 16.2796C8.0882 16.2796 5.71977 13.9111 5.71977 10.9996C5.71977 8.08801 8.0882 5.71957 10.9998 5.71957C12.6635 5.71957 14.2001 6.49129 15.1987 7.80613L13.2702 8.9216C12.691 8.28738 11.8677 7.91957 10.9998 7.91957C9.30164 7.91957 7.91977 9.30145 7.91977 10.9996C7.91977 12.6977 9.30164 14.0796 10.9998 14.0796C11.8677 14.0796 12.691 13.7118 13.2702 13.0775L15.1987 14.193C14.2001 15.5079 12.6635 16.2796 10.9998 16.2796ZM16.2798 11.4396H15.3998V12.3196H14.5198V11.4396H13.6398V10.5596H14.5198V9.67957H15.3998V10.5596H16.2798V11.4396ZM19.3598 11.4396H18.4798V12.3196H17.5998V11.4396H16.7198V10.5596H17.5998V9.67957H18.4798V10.5596H19.3598V11.4396Z" fill="#0075C0"/>
</svg>
