<svg width="80" height="80" viewBox="0 0 102 102" fill="none" xmlns="http://www.w3.org/2000/svg">
<path d="M44.1594 56.5244H40.9719V54.6621C39.0156 53.9912 37.2154 52.9002 35.7093 51.4635L35.5978 51.3455L21.4668 34.8088V30.2363H24.6543V33.6326L37.9653 49.2115C39.3662 50.528 41.0867 51.4659 42.9458 51.9241L44.1586 52.2221L44.1594 56.5244Z" fill="#00B4D8"/>
<path d="M34.3265 32.4653H31.139V20.242C31.139 17.0984 28.5993 14.5412 25.478 14.5412H24.6556V19.8006H21.4681V14.3731L21.3828 14.3635L21.4681 11.4716L21.5183 11.4684L21.5247 11.3553L25.4772 11.3545C30.3564 11.3545 34.3257 15.3413 34.3257 20.2428L34.3265 32.4653Z" fill="#00B4D8"/>
<path d="M7.61414 30.8298H2.40577C1.07897 30.8298 0 29.6568 0 28.2145V21.0004C0 19.5373 1.05666 18.3906 2.40497 18.3906H7.61334V21.5781H3.1875V27.6423H7.61334V30.8298H7.61414Z" fill="#00B4D8"/>
<path d="M90.9234 31.0396H88.9121V27.8521H90.0684L95.6266 24.6407L90.0684 21.4316H88.9121V18.2441H90.9234L102 24.6399L90.9234 31.0396Z" fill="#00B4D8"/>
<path d="M90.7878 31.9733H71.0684V28.7858H87.6003V20.3955H71.0684V17.208H90.7878V31.9733Z" fill="#00B4D8"/>
<path d="M31.6078 31.9733H6.34766V17.208H31.6078V20.3955H9.53516V28.7858H31.6078V31.9733Z" fill="#00B4D8"/>
<path d="M44.1597 56.5243H40.9722V54.662C39.0159 53.9911 37.2158 52.9001 35.7097 51.4634L35.5981 51.3454L21.4671 34.8087V32.0961L21.3516 30.912L22.4839 30.4713L23.0577 31.9479L23.0609 31.9288V30.3613L23.3087 30.5661L23.3406 30.3932L24.6554 30.6267V33.6317L37.9664 49.2106C39.3673 50.5271 41.0878 51.465 42.9469 51.9232L44.1597 52.2212V56.5243Z" fill="#00B4D8"/>
<path d="M67.9072 56.5244H64.7197V50.492L65.3549 50.0139C68.2156 47.8599 69.8556 44.5784 69.8556 41.0108V18.7182L69.6173 13.8708C69.6157 12.0396 68.1997 10.6116 66.4593 10.6116C63.3141 10.6116 63.3061 12.0484 63.3061 12.595V12.599H60.1186V11.4069C60.1186 9.65138 58.7041 8.22338 56.9654 8.22338C55.2266 8.22338 53.8105 9.65138 53.8105 11.4069H50.623V9.01786C50.623 7.26314 49.2086 5.83594 47.469 5.83594C45.7294 5.83594 44.315 7.26314 44.315 9.01786V11.7065H41.1275C41.1275 10.3455 39.6277 8.7015 37.7655 8.7015C35.9358 8.7015 34.4473 10.2036 34.4473 12.0492V32.4651H31.2598V12.0492C31.2598 8.4457 34.1787 5.514 37.7655 5.514C39.1321 5.514 40.4509 5.98336 41.541 6.75314C42.4527 4.35614 44.7652 2.64844 47.4682 2.64844C49.9919 2.64844 52.1761 4.137 53.1961 6.28458C54.2496 5.49966 55.5541 5.03508 56.9646 5.03508C59.3456 5.03508 61.4239 6.36028 62.5068 8.31422C63.5356 7.73409 64.8696 7.42331 66.4585 7.42331C69.9576 7.42331 72.8024 10.2809 72.8024 13.7927L73.0407 18.6401L73.0423 41.0084C73.0423 45.3155 71.1808 49.2959 67.9065 52.0523L67.9072 56.5244Z" fill="#00B4D8"/>
<path d="M80.3228 99.3519H77.1353V61.7705H41.1875V99.3519H38V58.583H80.3228V99.3519Z" fill="#00B4D8"/>
<path d="M80.3228 99.3519H77.1353V61.7705H41.1875V99.3519H38V58.583H80.3228V99.3519Z" fill="#00B4D8"/>
<path d="M74.4736 66.8584H71.2861V71.14H74.4736V66.8584Z" fill="#00B4D8"/>
</svg>
