<svg width="50" height="50" viewBox="0 0 256 256" fill="none" xmlns="http://www.w3.org/2000/svg">
<g clip-path="url(#clip0_163_11)">
<path d="M220 175.332V80.6677C220 79.251 219.624 77.8597 218.91 76.6361C218.196 75.4124 217.17 74.4003 215.936 73.7032L131.936 26.225C130.736 25.5462 129.379 25.1895 128 25.1895C126.621 25.1895 125.264 25.5462 124.064 26.225L40.0635 73.7032C38.8302 74.4003 37.8041 75.4124 37.0902 76.6361C36.3762 77.8597 36 79.251 36 80.6677V175.332C36 176.749 36.3762 178.14 37.0902 179.364C37.8041 180.588 38.8302 181.6 40.0635 182.297L124.064 229.775C125.264 230.454 126.621 230.811 128 230.811C129.379 230.811 130.736 230.454 131.936 229.775L215.936 182.297C217.17 181.6 218.196 180.588 218.91 179.364C219.624 178.14 220 176.749 220 175.332Z" stroke="#00B4D8" stroke-width="8" stroke-linecap="round" stroke-linejoin="round"/>
<path d="M155.105 161.661L154.815 94.1152L128.021 140.987L102.126 95.082L102.406 160.227" stroke="#00B4D8" stroke-width="12.5" stroke-linecap="round" stroke-linejoin="round"/>
<path d="M155.105 161.661L154.815 94.1152L128.021 140.987L102.126 95.082L102.406 160.227" stroke="#00B4D8" stroke-width="7.5" stroke-linecap="round" stroke-linejoin="round"/>
</g>
<defs>
<clipPath id="clip0_163_11">
<rect width="256" height="256" fill="white"/>
</clipPath>
</defs>
</svg>
