<svg width="55" height="55" viewBox="0 0 178 145" fill="none" xmlns="http://www.w3.org/2000/svg">
<path d="M44.4994 36.2507C44.4994 33.046 46.0621 29.9725 48.8439 27.7064C51.6257 25.4404 55.3986 24.1673 59.3327 24.1673C61.2997 24.1673 63.1862 23.5308 64.5771 22.3978C65.968 21.2647 66.7494 19.728 66.7494 18.1257C66.7494 16.5233 65.968 14.9866 64.5771 13.8535C63.1862 12.7205 61.2997 12.084 59.3327 12.084C51.4646 12.084 43.9188 14.6301 38.3552 19.1622C32.7916 23.6944 29.666 29.8413 29.666 36.2507V54.3757C29.666 57.5804 28.1032 60.6538 25.3214 62.9199C22.5396 65.1859 18.7667 66.459 14.8327 66.459C12.8657 66.459 10.9792 67.0955 9.58831 68.2286C8.19741 69.3616 7.41602 70.8983 7.41602 72.5007C7.41602 74.103 8.19741 75.6397 9.58831 76.7728C10.9792 77.9058 12.8657 78.5423 14.8327 78.5423C18.7667 78.5423 22.5396 79.8154 25.3214 82.0815C28.1032 84.3475 29.666 87.421 29.666 90.6257V108.751C29.666 115.16 32.7916 121.307 38.3552 125.839C43.9188 130.371 51.4646 132.917 59.3327 132.917C61.2997 132.917 63.1862 132.281 64.5771 131.148C65.968 130.015 66.7494 128.478 66.7494 126.876C66.7494 125.273 65.968 123.737 64.5771 122.604C63.1862 121.471 61.2997 120.834 59.3327 120.834C55.3986 120.834 51.6257 119.561 48.8439 117.295C46.0621 115.029 44.4994 111.955 44.4994 108.751V90.6257C44.4755 87.1851 43.5501 83.7884 41.785 80.6626C40.02 77.5369 37.4559 74.7542 34.2643 72.5007C37.4559 70.2471 40.02 67.4644 41.785 64.3387C43.5501 61.2129 44.4755 57.8162 44.4994 54.3757V36.2507ZM163.166 66.459C159.232 66.459 155.459 65.1859 152.677 62.9199C149.895 60.6538 148.333 57.5804 148.333 54.3757V36.2507C148.333 29.8413 145.207 23.6944 139.644 19.1622C134.08 14.6301 126.534 12.084 118.666 12.084C116.699 12.084 114.813 12.7205 113.422 13.8535C112.031 14.9866 111.249 16.5233 111.249 18.1257C111.249 19.728 112.031 21.2647 113.422 22.3978C114.813 23.5308 116.699 24.1673 118.666 24.1673C122.6 24.1673 126.373 25.4404 129.155 27.7064C131.937 29.9725 133.499 33.046 133.499 36.2507V54.3757C133.523 57.8162 134.449 61.2129 136.214 64.3387C137.979 67.4644 140.543 70.2471 143.734 72.5007C140.543 74.7542 137.979 77.5369 136.214 80.6626C134.449 83.7884 133.523 87.1851 133.499 90.6257V108.751C133.499 111.955 131.937 115.029 129.155 117.295C126.373 119.561 122.6 120.834 118.666 120.834C116.699 120.834 114.813 121.471 113.422 122.604C112.031 123.737 111.249 125.273 111.249 126.876C111.249 128.478 112.031 130.015 113.422 131.148C114.813 132.281 116.699 132.917 118.666 132.917C126.534 132.917 134.08 130.371 139.644 125.839C145.207 121.307 148.333 115.16 148.333 108.751V90.6257C148.333 87.421 149.895 84.3475 152.677 82.0815C155.459 79.8154 159.232 78.5423 163.166 78.5423C165.133 78.5423 167.02 77.9058 168.41 76.7728C169.801 75.6397 170.583 74.103 170.583 72.5007C170.583 70.8983 169.801 69.3616 168.41 68.2286C167.02 67.0955 165.133 66.459 163.166 66.459Z" fill="#00B4D8"/>
<path fill-rule="evenodd" clip-rule="evenodd" d="M71.3333 58.6999V99.5008C71.3333 101.94 69.356 103.917 66.9167 103.917C64.4773 103.917 62.5 101.94 62.5 99.5008V46.5008C62.5 44.6414 63.6647 42.981 65.413 42.3481C67.1616 41.7149 69.1193 42.2449 70.3095 43.6733L89 66.1018L107.69 43.6733C108.881 42.2449 110.838 41.7149 112.587 42.3481C114.335 42.981 115.5 44.6414 115.5 46.5008V99.5008C115.5 101.94 113.523 103.917 111.083 103.917C108.644 103.917 106.667 101.94 106.667 99.5008V58.6999L92.3929 75.8284C91.5539 76.8354 90.3109 77.4175 89 77.4175C87.6891 77.4175 86.4461 76.8354 85.6071 75.8284L71.3333 58.6999Z" fill="#00B4D8"/>
</svg>
