<svg width="80" height="80" viewBox="0 0 85 85" fill="none" xmlns="http://www.w3.org/2000/svg">
<path d="M82.3438 21.25H56.7468C55.8663 17.3745 52.8474 10.625 42.5 10.625C32.1526 10.625 29.1338 17.3745 28.2532 21.25H2.65625C1.19 21.25 0 22.44 0 23.9062V71.7188C0 73.185 1.19 74.375 2.65625 74.375H82.3438C83.81 74.375 85 73.185 85 71.7188V23.9062C85 22.44 83.81 21.25 82.3438 21.25ZM42.5 15.9375C48.2574 15.9375 50.4422 18.9178 51.2763 21.25H33.7184C34.5552 18.9298 36.7479 15.9375 42.5 15.9375ZM79.6875 26.5625V37.1875H5.3125V26.5625H79.6875ZM38.5156 42.5H46.4844V45.1562H38.5156V42.5ZM5.3125 69.0625V42.5H33.2031V47.8125C33.2031 49.2788 34.3931 50.4688 35.8594 50.4688H49.1406C50.6069 50.4688 51.7969 49.2788 51.7969 47.8125V42.5H79.6875V69.0625H5.3125Z" fill="#00B4D8"/>
</svg>
